<?xml version="1.0" encoding="utf-8"?>
<!-- Generator: Adobe Illustrator 19.2.1, SVG Export Plug-In . SVG Version: 6.00 Build 0)  -->
<svg version="1.1" id="图层_1" xmlns="http://www.w3.org/2000/svg" xmlns:xlink="http://www.w3.org/1999/xlink" x="0px" y="0px"
	 viewBox="0 0 55 53" enable-background="new 0 0 55 53" width="55" height="53" xml:space="preserve">
<g>
	<g>
		<path fill-rule="evenodd" clip-rule="evenodd" fill="#FFFFFF" opacity=".25" d="M33.611,43.64l8.92-15.472c-1.5-1.265-3.437-2.028-5.552-2.028
			h-2.678l-7.749,13.426c-1.681,3.003-4.892,5.033-8.578,5.033c-5.427,0-9.826-4.341-9.826-9.769c0-0.06,0-0.06,0-0.12
			c0-2.652,1.05-4.999,2.757-6.767l-0.112-0.195c-1.392-2.431-2.267-5.196-2.476-8.145C3.316,22.797,0,28.336,0,34.711v0.12
			C0,44.76,8.047,52.75,17.974,52.75C24.675,52.75,30.52,49.079,33.611,43.64z M20.917,42.884c1.946-0.707,3.567-2.093,4.573-3.874
			l1.299-2.249l-7.901-13.691c-0.81-1.429-1.273-3.081-1.273-4.842c0-5.428,4.399-9.829,9.826-9.829c0.02,0,0.1,0,0.12,0
			c4.51,0,8.269,3.044,9.42,7.192c3.048,0,5.929,0.714,8.487,1.982C45.123,7.948,37.261,0.25,27.56,0.25c-0.02,0-0.1,0-0.12,0
			c-9.927,0-17.974,8.05-17.974,17.979c0,3.246,0.86,6.29,2.364,8.919L20.917,42.884z M54.94,34.711
			c0-9.93-8.041-17.92-17.961-17.92H18.931c-0.077,0.468-0.118,0.948-0.118,1.438c0,1.543,0.405,2.99,1.114,4.244l1.42,2.469h15.633
			c5.423,0,9.813,4.341,9.813,9.769v0.12c0,5.428-4.39,9.769-9.813,9.769c-0.817,0-1.611-0.1-2.371-0.289
			c-1.471,2.561-3.516,4.75-5.96,6.391c2.49,1.308,5.324,2.048,8.33,2.048c9.92,0,17.961-7.99,17.961-17.919H55L54.94,34.711z"/>
	</g>
</g>
</svg>
